<svg xmlns="http://www.w3.org/2000/svg" xmlns:xlink="http://www.w3.org/1999/xlink" width="16" height="15" viewBox="0 0 16 15"><defs><path id="ssira" d="M781.67 70.96v2.07a1.98 1.98 0 0 1-1.99 2 2 2 0 0 1-.2-.01 14.4 14.4 0 0 1-10.58-6.56 14.4 14.4 0 0 1-2.22-6.28 1.98 1.98 0 0 1 1.98-2.18h2.1a2 2 0 0 1 1.97 1.72c.08.62.23 1.23.45 1.81a2 2 0 0 1-.45 2.1l-.55.55a10.49 10.49 0 0 0 3.3 3.3l.55-.54a2 2 0 0 1 2.1-.45c.59.22 1.2.37 1.82.45a2 2 0 0 1 1.72 2.02zm-1.88-.82c-.71-.1-1.41-.26-2.08-.51a.78.78 0 0 0-.82.17l-.88.88a.6.6 0 0 1-.73.1 11.7 11.7 0 0 1-4.39-4.39.6.6 0 0 1 .1-.73l.88-.88a.78.78 0 0 0 .17-.82 9.52 9.52 0 0 1-.51-2.08.78.78 0 0 0-.77-.67h-2.17a.78.78 0 0 0-.7.85c.21 2.04.92 4.02 2.03 5.74a13.17 13.17 0 0 0 9.76 6.01.77.77 0 0 0 .78-.78v-2.08-.02a.78.78 0 0 0-.67-.79z"/></defs><g><g transform="translate(-766 -60)"><use fill="#2b2b51" xlink:href="#ssira"/></g></g></svg>