<svg xmlns="http://www.w3.org/2000/svg" xmlns:xlink="http://www.w3.org/1999/xlink" width="20" height="20" viewBox="0 0 20 20"><defs><path id="atyfa" d="M713.72 72.55a5.45 5.45 0 0 1-8.04 4.8 9.4 9.4 0 0 1-10.93-11.14 5.45 5.45 0 0 1 7.6-7.38 9.4 9.4 0 0 1 10.8 11.29c.36.73.57 1.56.57 2.43zm-4.28-2.05c0-.65-.13-1.2-.38-1.66a3.2 3.2 0 0 0-1.06-1.11 6.7 6.7 0 0 0-1.6-.74c-.63-.2-1.33-.38-2.09-.54l-1.3-.32a4.1 4.1 0 0 1-.75-.3 1.68 1.68 0 0 1-.56-.42.82.82 0 0 1-.2-.55c0-.35.2-.64.59-.9.4-.27.96-.4 1.63-.4.73 0 1.25.12 1.57.36.32.25.6.6.84 1.04.2.35.39.6.56.75.2.17.47.25.81.25.39 0 .71-.13.97-.4s.39-.57.39-.9c0-.36-.1-.72-.3-1.08-.2-.36-.5-.7-.91-1.03a4.85 4.85 0 0 0-1.56-.77 7.48 7.48 0 0 0-2.19-.3c-1.05 0-1.98.15-2.76.44-.79.3-1.4.72-1.82 1.27-.43.55-.64 1.2-.64 1.9 0 .75.2 1.38.6 1.89.4.5.95.9 1.62 1.18.66.28 1.49.53 2.47.74.71.15 1.3.3 1.72.43.41.12.75.31 1 .55.25.23.37.52.37.9 0 .46-.23.85-.7 1.16-.48.33-1.12.5-1.9.5-.56 0-1.02-.08-1.36-.24-.34-.17-.6-.37-.79-.62-.19-.25-.37-.57-.54-.95a2.15 2.15 0 0 0-.55-.8c-.22-.2-.5-.3-.83-.3-.4 0-.72.13-.98.37s-.39.54-.39.89a3 3 0 0 0 .6 1.7c.4.57.92 1.03 1.55 1.37.88.47 2.02.7 3.37.7 1.12 0 2.11-.17 2.93-.51a4.29 4.29 0 0 0 1.92-1.45c.43-.62.65-1.32.65-2.1z"/></defs><g><g transform="translate(-694 -58)"><use fill="#2b2b51" xlink:href="#atyfa"/></g></g></svg>