<svg xmlns="http://www.w3.org/2000/svg" xmlns:xlink="http://www.w3.org/1999/xlink" width="20" height="20" viewBox="0 0 20 20"><defs><path id="r38ea" d="M642.91 70.75v.02a6.67 6.67 0 0 1-4.5 4.33h-.03a25.1 25.1 0 0 1-6.1.41l-2.13 2.22a.85.85 0 0 1-1.46-.58v-2.11c-1.86-.53-3.8-2.46-4.25-4.27v-.02c-.58-2.64-.58-5.3 0-7.94v-.03a6.67 6.67 0 0 1 4.5-4.33h.02c3.13-.6 6.3-.6 9.42 0h.02a6.67 6.67 0 0 1 4.5 4.33l.01.03c.58 2.63.58 5.3 0 7.94zm-1.69-7.56a5.04 5.04 0 0 0-3.18-3.04 23.3 23.3 0 0 0-8.74 0 5.05 5.05 0 0 0-3.18 3.04c-.52 2.38-.52 4.8 0 7.18a5.05 5.05 0 0 0 3.18 3.04c.06.01.1.06.1.12v3.49c0 .17.21.26.33.13l1.66-1.7 1.56-1.6a.12.12 0 0 1 .08-.04c1.68.05 3.35-.08 5.01-.4a5.04 5.04 0 0 0 3.18-3.04c.52-2.39.52-4.8 0-7.18z"/><path id="r38eb" d="M636.44 71.98c-.2-.06-.38-.1-.56-.17a12.58 12.58 0 0 1-4.74-3.17 12.3 12.3 0 0 1-1.81-2.77c-.23-.48-.43-.97-.63-1.46-.18-.44.09-.9.37-1.24.26-.31.6-.55.98-.73.28-.14.57-.06.78.18.45.53.87 1.09 1.21 1.7.21.38.15.84-.22 1.1-.1.06-.18.13-.27.2a.86.86 0 0 0-.2.21c-.09.15-.1.33-.03.5a4.52 4.52 0 0 0 2.54 2.81c.2.09.41.19.65.16.4-.05.53-.48.8-.71a.76.76 0 0 1 .92-.04c.3.18.58.38.86.58.28.2.55.4.81.62.25.22.33.5.2.8-.26.54-.63.98-1.16 1.27-.15.08-.33.1-.5.16-.2-.06.17-.05 0 0z"/><path id="r38ec" d="M633.67 61.82a4.76 4.76 0 0 1 4.68 3.93c.07.4.1.8.12 1.2.02.17-.08.33-.26.33-.19 0-.27-.15-.28-.32-.03-.33-.05-.67-.1-1a4.18 4.18 0 0 0-3.36-3.5c-.26-.04-.53-.05-.8-.08-.16-.02-.38-.03-.42-.24-.03-.17.12-.31.29-.32h.13c2.34.07-.04 0 0 0z"/><path id="r38ed" d="M637.23 66.43c0 .03 0 .1-.02.16-.07.24-.42.27-.5.03a.7.7 0 0 1-.03-.23 2.65 2.65 0 0 0-2.35-2.74l-.4-.04c-.17-.03-.26-.13-.25-.3 0-.14.12-.25.28-.24.54.03 1.06.15 1.53.4a3.1 3.1 0 0 1 1.7 2.41l.01.15.03.4c0 .03-.01-.16 0 0z"/><path id="r38ee" d="M635.78 66.37c-.2 0-.3-.1-.32-.28l-.06-.38a1.05 1.05 0 0 0-.39-.6c-.1-.07-.2-.13-.31-.16-.15-.04-.3-.03-.44-.06-.15-.04-.24-.17-.22-.31a.28.28 0 0 1 .3-.23c.9.07 1.56.54 1.65 1.6v.23c-.03.12-.12.19-.21.2-.2 0 .09-.01 0 0z"/></defs><g><g transform="translate(-624 -58)"><use fill="#2b2b51" xlink:href="#r38ea"/></g><g transform="translate(-624 -58)"><use fill="#2b2b51" xlink:href="#r38eb"/></g><g transform="translate(-624 -58)"><use fill="#fff" xlink:href="#r38ec"/></g><g transform="translate(-624 -58)"><use fill="#fff" xlink:href="#r38ed"/></g><g transform="translate(-624 -58)"><use fill="#fff" xlink:href="#r38ee"/></g></g></svg>