<svg xmlns="http://www.w3.org/2000/svg" xmlns:xlink="http://www.w3.org/1999/xlink" width="20" height="20" viewBox="0 0 20 20"><defs><path id="cxhka" d="M558.18 77.48a9.83 9.83 0 0 1-4.74-1.2L548 78l1.77-5.23a9.64 9.64 0 0 1-1.4-5.03c0-5.38 4.39-9.74 9.81-9.74a9.78 9.78 0 0 1 9.82 9.74c0 5.38-4.4 9.74-9.82 9.74zm-8.25-9.74c0 1.8.58 3.45 1.57 4.8l-1.03 3.05 3.17-1.01a8.23 8.23 0 0 0 12.8-6.84c0-4.51-3.7-8.19-8.26-8.19a8.23 8.23 0 0 0-8.25 8.2zM563.14 70c.06.1.06.57-.14 1.13-.2.56-1.18 1.1-1.63 1.14-.44.04-.44.36-2.88-.6-2.45-.96-4-3.45-4.11-3.6-.13-.16-.99-1.3-.99-2.47 0-1.18.62-1.76.84-2 .23-.24.49-.3.65-.3l.46.02c.14 0 .34-.07.54.4l.74 1.78c.06.12.1.25.02.41-.08.16-.12.26-.24.4s-.25.31-.36.42c-.12.12-.25.25-.1.49a7.2 7.2 0 0 0 1.33 1.65c.92.81 1.7 1.07 1.94 1.19.24.12.38.1.52-.06s.6-.7.76-.94c.16-.24.32-.2.54-.12.22.08 1.4.66 1.65.78.24.12.4.18.46.28z"/></defs><g><g transform="translate(-548 -58)"><use fill="#2b2b51" xlink:href="#cxhka"/></g></g></svg>