<svg xmlns="http://www.w3.org/2000/svg" xmlns:xlink="http://www.w3.org/1999/xlink" width="260" height="43" viewBox="0 0 260 43"><defs><path id="b49na" d="M176 50.04c5.82 0 8.74-.9 10.58 3.78 1.63 4.2-.31 9.21-3.87 9.68 5.08 1.35 6.7 11.7 1.5 14.82-1.49.88-1.24.66-8.18.66v-.6h.84v-27.8H176zm4.48.66v12.44c1.92 0 2.56.1 2.56-2.7 0-8.6.9-9.74-2.56-9.74zm0 27.62c1.78 0 2.56.33 2.56-3 0-5.3.12-8.07-.1-9.65-.33-2.48-1.8-1.73-2.46-1.87z"/><path id="b49nb" d="M198.75 78.68h-4.17c0-3.04.42.32-2.17.32-2.6 0-3.16-2.22-3.16-4.93v-15.7h-.9v-.66h4.17c0 19 0 18.75.1 19.78.09 1.03.94.88 1.51 0 .57-.89.45-.32.45-19.12h-.75v-.66h4.08v20.31h.9z"/><path id="b49nc" d="M201.08 69.88c-.05 2.07.33 4.13 1.12 6.05 1.86 3.64 3.27 2.53 3.27-.26 0-2.41-1.45-4.84-2.53-6.9-3.83-7.24-1.62-11.06.9-11.06 1.75 0 2.06 1.16 2.66 1.16a.97.97 0 0 0 .94-.82h.32v8.07h-.46c-.5-5.76-2.16-8.17-3.41-7.72-.47.15-.63.5-.63 1.52 0 2.26.76 4.57 2.9 7.74a12.56 12.56 0 0 1 2.14 7.5A3.97 3.97 0 0 1 205.1 79c-1.1 0-1.86-1.03-2.45-1.22-.9-.32-1.33.32-1.52.92h-.41v-8.82z"/><path id="b49nd" d="M238.27 69.88c-.07 2.06.29 4.12 1.05 6.04 1.83 3.63 3.25 2.53 3.25-.26 0-2.41-1.45-4.84-2.53-6.9-3.8-7.23-1.6-11.05.9-11.05 1.75 0 2.05 1.16 2.65 1.16a.98.98 0 0 0 .93-.82h.3v8.06h-.45c-.5-5.75-2.15-8.16-3.4-7.72-.46.16-.63.5-.63 1.53 0 2.25.77 4.57 2.9 7.73a12.7 12.7 0 0 1 2.12 7.5 3.96 3.96 0 0 1-3.24 3.85c-1.09 0-1.85-1.03-2.43-1.22-.9-.32-1.32.33-1.5.92h-.42v-8.82z"/><path id="b49ne" d="M247.77 69.88a15 15 0 0 0 1.05 6.04c1.84 3.63 3.25 2.53 3.25-.26 0-2.41-1.45-4.84-2.52-6.9-3.8-7.23-1.6-11.05.89-11.05 1.75 0 2.05 1.16 2.65 1.16a.97.97 0 0 0 .92-.82h.3v8.06h-.43c-.5-5.75-2.16-8.16-3.4-7.72-.47.16-.63.5-.63 1.53 0 2.25.76 4.57 2.9 7.73a12.6 12.6 0 0 1 2.11 7.5 3.96 3.96 0 0 1-3.24 3.85c-1.09 0-1.85-1.03-2.43-1.22-.9-.32-1.32.33-1.5.92h-.42v-8.82z"/><path id="b49nf" d="M209.31 57.36h3.87V77.4h.83v.64h-4.7v-.64h.78V58h-.83zm3.94-7.52c.34.57.34 1.29 0 1.86-.33.57-.95.89-1.58.83a1.67 1.67 0 0 1-1.59-.83 1.84 1.84 0 0 1 0-1.86c.34-.57.95-.9 1.59-.83.63-.06 1.25.26 1.58.83z"/><path id="b49ng" d="M215.91 58.05h4.2v1.34a2.46 2.46 0 0 1 4.38-.58c1.3 1.77.97 2.68.97 19.5h.9v.65h-4.98v-.62h.76c0-18 0-18.11-.09-19.1-.08-1-.97-.87-1.53 0s-.45.23-.45 19.1h.75V79h-4.91v-.66h.9V58.7h-.9z"/><path id="b49nh" d="M231.54 57.71c3.63 0 4.33 5.8 4.33 10.29h-5.44c0 6.43-.43 10.34 1.7 10.34 2.74 0 3.2-4.76 3.2-7.45h.46c0 8.4-4.08 9.33-6.04 7.02-3.78-4.45-3.13-20.2 1.8-20.2zm-.08.64h.01zm-1.02 9h2.3c0-6.85-.05-8.99-1.27-9-1.3.01-1.03 2.5-1.03 9z"/><path id="b49ni" d="M314.2 57.71c3.64 0 4.34 5.8 4.34 10.29h-5.44c0 6.43-.43 10.34 1.7 10.34 2.75 0 3.22-4.76 3.22-7.45h.46c0 8.4-4.1 9.33-6.06 7.02-3.79-4.45-3.12-20.2 1.78-20.2zm-.06.64a1.03 1.03 0 0 1 .06 0zm-.97 9h2.3c-.06-6.8-.1-8.96-1.3-9-1.27.04-1 2.54-1 9z"/><path id="b49nj" d="M261.74 65.67h-.7v11.9h1.11v.46h-6.32v-.46h1.16V49.49h-.89v-.46c3.12 0 4.77-.07 5.87 0 3.68.25 5.26 3.04 5.26 8.01 0 4.98-1.69 8.63-5.5 8.63zm1.8-4.1c0-9.87.48-11.9-2.5-11.9V65c1.62 0 2.5.09 2.5-3.44z"/><path id="b49nk" d="M272.67 57.71c2.2 0 3.91.73 3.91 3.74 0 17.28-.13 15.82.22 16.29.34.46 1.44-.59 1.44-1.13h.4c0 1.75-2.15 2.39-2.7 2.39a2.16 2.16 0 0 1-1.66-.7 2.4 2.4 0 0 1-.63-1.76 3.32 3.32 0 0 1-3.28 2.3 2.01 2.01 0 0 1-1.55-.6c-.42-.41-.65-1-.64-1.6v-7c0-3.3 5.36-2.82 5.36-4.98 0-3.6.09-5.2-.47-5.9a2.17 2.17 0 0 0-1.98-.28c-.8.28-1.68 1.2-1.47 1.18 2.1-.11 3.12 1.55 1.97 3.45-.51.71-1.41.97-2.2.65a2 2 0 0 1-1.18-2.06c0-2.29 2.25-3.99 4.46-3.99zm.86 17.15v-8.7c-1.04.71-1.78 1.18-1.78 1.18-.67.49-.47 5-.43 10.01 0 1.05 1.97.21 2.2-2.49z"/><path id="b49nl" d="M293.2 49.97h.5v8.01h2.78v.65h-2.79v17.73c0 1.01 0 1.57.8 1.32 1.73-.62 1.6-3.3 1.8-7.36h.38c0 1.95.55 8.81-3.53 8.68-1.95 0-2.53-1.86-2.53-3.86V58.63h-1.52v-.57a9.82 9.82 0 0 0 4.11-8.09z"/><path id="b49nm" d="M298.59 58.06h4.2v1.34a2.45 2.45 0 0 1 4.39-.57c1.36 1.76.96 2.67.96 19.48h.9v.65h-4.94v-.61h.75c0-17.99 0-18.1-.08-19.1-.09-.99-.97-.87-1.53 0s-.45.23-.45 19.1h.75V79h-4.95v-.65h.9V58.72h-.9z"/><path id="b49nn" d="M325.78 62.38c0-1.17.83-2.75.83-3.56 0-.82-1.53-.7-2.04 2.02-.17.96-.13 0-.13 17.5h.86V79h-4.85v-.65h.86V58.74h-.86v-.66h3.99c0 1.34-.12 1.34 0 1.15.12-.18.99-1.52 2.21-1.52 1.64 0 2.47 2.23 2.34 4-.1 1.44-.57 2.58-1.61 2.58s-1.6-.78-1.6-1.9z"/><path id="b49no" d="M284.9 62.38c0-1.17.84-2.75.84-3.56 0-.82-1.53-.7-2.04 2.02-.17.96-.13 0-.13 17.5h.86V79h-4.85v-.65h.86V58.74h-.86v-.66h3.99c0 1.34-.12 1.34 0 1.15.12-.18.99-1.52 2.21-1.52 1.64 0 2.47 2.23 2.34 4-.1 1.44-.57 2.58-1.61 2.58s-1.6-.78-1.6-1.9z"/><path id="b49np" d="M69 79h82V57.02C140.68 67.41 117.63 73.21 69 79z"/><path id="b49nq" d="M69 78.04c23.17-4.85 47.46-9.7 70.56-14.55l-3.52-18.89C129.18 55.25 109.11 64.5 69 78.04z"/><path id="b49nr" d="M69 78.04l58.16-24.28L118.73 36C114.36 47.2 101.29 59.08 69 78.04z"/></defs><g><g transform="translate(-69 -36)"><use fill="#0089ed" xlink:href="#b49na"/></g><g transform="translate(-69 -36)"><use fill="#0089ed" xlink:href="#b49nb"/></g><g transform="translate(-69 -36)"><use fill="#0089ed" xlink:href="#b49nc"/></g><g transform="translate(-69 -36)"><use fill="#0089ed" xlink:href="#b49nd"/></g><g transform="translate(-69 -36)"><use fill="#0089ed" xlink:href="#b49ne"/></g><g transform="translate(-69 -36)"><use fill="#0089ed" xlink:href="#b49nf"/></g><g transform="translate(-69 -36)"><use fill="#0089ed" xlink:href="#b49ng"/></g><g transform="translate(-69 -36)"><use fill="#0089ed" xlink:href="#b49nh"/></g><g transform="translate(-69 -36)"><use fill="#0089ed" xlink:href="#b49ni"/></g><g transform="translate(-69 -36)"><use fill="#0089ed" xlink:href="#b49nj"/></g><g transform="translate(-69 -36)"><use fill="#0089ed" xlink:href="#b49nk"/></g><g transform="translate(-69 -36)"><use fill="#0089ed" xlink:href="#b49nl"/></g><g transform="translate(-69 -36)"><use fill="#0089ed" xlink:href="#b49nm"/></g><g transform="translate(-69 -36)"><use fill="#0089ed" xlink:href="#b49nn"/></g><g transform="translate(-69 -36)"><use fill="#0089ed" xlink:href="#b49no"/></g><g transform="translate(-69 -36)"><use fill="#e32213" xlink:href="#b49np"/></g><g transform="translate(-69 -36)"><use fill="#019ee3" xlink:href="#b49nq"/></g><g transform="translate(-69 -36)"><use fill="#fff" xlink:href="#b49nr"/></g></g></svg>